<svg xmlns="http://www.w3.org/2000/svg" viewBox="0 0 2133.31 401.26"><defs><style>.cls-1,.cls-2{fill:#fff;}.cls-2{font-size:329.94px;font-family:HelveticaRounded-Bold, Helvetica Rounded;font-weight:700;}.cls-3{letter-spacing:-0.05em;}.cls-4{letter-spacing:-0.04em;}</style></defs><g id="Layer_2" data-name="Layer 2"><g id="Layer_1-2" data-name="Layer 1"><path class="cls-1" d="M205.11,401.26h0A121.86,121.86,0,0,1,91.29,322.92L4.76,96.58C-13.06,50,21.35,0,71.23,0h0a79.45,79.45,0,0,1,74.43,51.65l101,270.45L341.83,75.94a25.27,25.27,0,0,0-23.56-34.37h0a37.36,37.36,0,0,0-35.5,25.73L237.21,204.46l-26-54.29L245.57,47.28A68.7,68.7,0,0,1,310.84,0h0c50.53,0,85.3,50.73,67.09,97.85L280.65,349.48A81,81,0,0,1,205.11,401.26Zm11.21-41.57h0l-111-297.14a32.27,32.27,0,0,0-30.23-21h0A32.27,32.27,0,0,0,45,85.37l81.14,212.24A96.57,96.57,0,0,0,216.32,359.69Z"/><text class="cls-2" transform="translate(457.23 322.92)"><tspan class="cls-3">V</tspan><tspan x="197.31" y="0">ersus</tspan><tspan class="cls-4" x="1089.45" y="0">P</tspan><tspan x="1309.52" y="0">ay</tspan></text></g></g></svg>